<svg xmlns="http://www.w3.org/2000/svg" xmlns:xlink="http://www.w3.org/1999/xlink" width="500" zoomAndPan="magnify" viewBox="0 0 375 374.999991" height="500" preserveAspectRatio="xMidYMid meet" version="1.0"><defs><clipPath id="id1"><path d="M 85 84 L 284 84 L 284 283 L 85 283 Z M 85 84 " clip-rule="nonzero"/></clipPath><clipPath id="id2"><path d="M 114.808594 253.722656 C 153.414062 292.417969 215.953125 292.417969 254.558594 253.722656 C 293.164062 215.023438 293.164062 152.332031 254.558594 113.632812 C 215.953125 74.933594 153.414062 74.933594 114.808594 113.632812 C 76.203125 152.246094 76.203125 215.023438 114.808594 253.722656 Z M 114.808594 253.722656 " clip-rule="evenodd"/></clipPath><linearGradient x1="3501.094607" gradientTransform="matrix(0.024321, 0, 0, -0.0243799, -18.049794, -17.58673)" y1="-4246.44296" x2="13170.604436" gradientUnits="userSpaceOnUse" y2="-12263.889979" id="id3"><stop stop-opacity="1" stop-color="rgb(0%, 100%, 100%)" offset="0"/><stop stop-opacity="1" stop-color="rgb(0%, 100%, 100%)" offset="0.0625"/><stop stop-opacity="1" stop-color="rgb(0%, 100%, 100%)" offset="0.09375"/><stop stop-opacity="1" stop-color="rgb(0.131226%, 99.946594%, 100%)" offset="0.101562"/><stop stop-opacity="1" stop-color="rgb(0.923157%, 99.629211%, 100%)" offset="0.105469"/><stop stop-opacity="1" stop-color="rgb(1.583862%, 99.365234%, 100%)" offset="0.109375"/><stop stop-opacity="1" stop-color="rgb(2.243042%, 99.101257%, 100%)" offset="0.113281"/><stop stop-opacity="1" stop-color="rgb(2.903748%, 98.83728%, 100%)" offset="0.117187"/><stop stop-opacity="1" stop-color="rgb(3.562927%, 98.573303%, 100%)" offset="0.121094"/><stop stop-opacity="1" stop-color="rgb(4.223633%, 98.309326%, 100%)" offset="0.125"/><stop stop-opacity="1" stop-color="rgb(4.882812%, 98.045349%, 100%)" offset="0.128906"/><stop stop-opacity="1" stop-color="rgb(5.543518%, 97.781372%, 100%)" offset="0.132812"/><stop stop-opacity="1" stop-color="rgb(6.202698%, 97.517395%, 100%)" offset="0.136719"/><stop stop-opacity="1" stop-color="rgb(6.863403%, 97.253418%, 100%)" offset="0.140625"/><stop stop-opacity="1" stop-color="rgb(7.522583%, 96.989441%, 100%)" offset="0.144531"/><stop stop-opacity="1" stop-color="rgb(8.183289%, 96.725464%, 100%)" offset="0.148437"/><stop stop-opacity="1" stop-color="rgb(8.842468%, 96.461487%, 100%)" offset="0.152344"/><stop stop-opacity="1" stop-color="rgb(9.503174%, 96.19751%, 100%)" offset="0.15625"/><stop stop-opacity="1" stop-color="rgb(10.162354%, 95.933533%, 100%)" offset="0.160156"/><stop stop-opacity="1" stop-color="rgb(10.823059%, 95.669556%, 100%)" offset="0.164062"/><stop stop-opacity="1" stop-color="rgb(11.482239%, 95.405579%, 100%)" offset="0.167969"/><stop stop-opacity="1" stop-color="rgb(12.142944%, 95.141602%, 100%)" offset="0.171875"/><stop stop-opacity="1" stop-color="rgb(12.802124%, 94.877625%, 100%)" offset="0.175781"/><stop stop-opacity="1" stop-color="rgb(13.46283%, 94.613647%, 100%)" offset="0.179687"/><stop stop-opacity="1" stop-color="rgb(14.122009%, 94.34967%, 100%)" offset="0.183594"/><stop stop-opacity="1" stop-color="rgb(14.782715%, 94.085693%, 100%)" offset="0.1875"/><stop stop-opacity="1" stop-color="rgb(15.441895%, 93.821716%, 100%)" offset="0.191406"/><stop stop-opacity="1" stop-color="rgb(16.1026%, 93.557739%, 100%)" offset="0.195312"/><stop stop-opacity="1" stop-color="rgb(16.76178%, 93.293762%, 100%)" offset="0.199219"/><stop stop-opacity="1" stop-color="rgb(17.422485%, 93.029785%, 100%)" offset="0.203125"/><stop stop-opacity="1" stop-color="rgb(18.081665%, 92.765808%, 100%)" offset="0.207031"/><stop stop-opacity="1" stop-color="rgb(18.742371%, 92.501831%, 100%)" offset="0.210937"/><stop stop-opacity="1" stop-color="rgb(19.40155%, 92.237854%, 100%)" offset="0.214844"/><stop stop-opacity="1" stop-color="rgb(20.06073%, 91.973877%, 100%)" offset="0.21875"/><stop stop-opacity="1" stop-color="rgb(20.71991%, 91.7099%, 100%)" offset="0.222656"/><stop stop-opacity="1" stop-color="rgb(21.380615%, 91.445923%, 100%)" offset="0.226562"/><stop stop-opacity="1" stop-color="rgb(22.039795%, 91.181946%, 100%)" offset="0.230469"/><stop stop-opacity="1" stop-color="rgb(22.7005%, 90.917969%, 100%)" offset="0.234375"/><stop stop-opacity="1" stop-color="rgb(23.35968%, 90.653992%, 100%)" offset="0.238281"/><stop stop-opacity="1" stop-color="rgb(24.020386%, 90.390015%, 100%)" offset="0.242187"/><stop stop-opacity="1" stop-color="rgb(24.679565%, 90.126038%, 100%)" offset="0.246094"/><stop stop-opacity="1" stop-color="rgb(25.340271%, 89.862061%, 100%)" offset="0.25"/><stop stop-opacity="1" stop-color="rgb(25.999451%, 89.598083%, 100%)" offset="0.253906"/><stop stop-opacity="1" stop-color="rgb(26.660156%, 89.334106%, 100%)" offset="0.257812"/><stop stop-opacity="1" stop-color="rgb(27.319336%, 89.070129%, 100%)" offset="0.261719"/><stop stop-opacity="1" stop-color="rgb(27.980042%, 88.806152%, 100%)" offset="0.265625"/><stop stop-opacity="1" stop-color="rgb(28.639221%, 88.542175%, 100%)" offset="0.269531"/><stop stop-opacity="1" stop-color="rgb(29.299927%, 88.279724%, 100%)" offset="0.273437"/><stop stop-opacity="1" stop-color="rgb(29.959106%, 88.015747%, 100%)" offset="0.277344"/><stop stop-opacity="1" stop-color="rgb(30.619812%, 87.75177%, 100%)" offset="0.28125"/><stop stop-opacity="1" stop-color="rgb(31.278992%, 87.487793%, 100%)" offset="0.285156"/><stop stop-opacity="1" stop-color="rgb(31.939697%, 87.223816%, 100%)" offset="0.289062"/><stop stop-opacity="1" stop-color="rgb(32.598877%, 86.959839%, 100%)" offset="0.292969"/><stop stop-opacity="1" stop-color="rgb(33.259583%, 86.695862%, 100%)" offset="0.296875"/><stop stop-opacity="1" stop-color="rgb(33.918762%, 86.431885%, 100%)" offset="0.300781"/><stop stop-opacity="1" stop-color="rgb(34.579468%, 86.167908%, 100%)" offset="0.304687"/><stop stop-opacity="1" stop-color="rgb(35.238647%, 85.903931%, 100%)" offset="0.308594"/><stop stop-opacity="1" stop-color="rgb(35.899353%, 85.639954%, 100%)" offset="0.3125"/><stop stop-opacity="1" stop-color="rgb(36.558533%, 85.375977%, 100%)" offset="0.316406"/><stop stop-opacity="1" stop-color="rgb(37.219238%, 85.112%, 100%)" offset="0.320312"/><stop stop-opacity="1" stop-color="rgb(37.878418%, 84.848022%, 100%)" offset="0.324219"/><stop stop-opacity="1" stop-color="rgb(38.539124%, 84.584045%, 100%)" offset="0.328125"/><stop stop-opacity="1" stop-color="rgb(39.198303%, 84.320068%, 100%)" offset="0.332031"/><stop stop-opacity="1" stop-color="rgb(39.857483%, 84.056091%, 100%)" offset="0.335937"/><stop stop-opacity="1" stop-color="rgb(40.516663%, 83.792114%, 100%)" offset="0.339844"/><stop stop-opacity="1" stop-color="rgb(41.177368%, 83.528137%, 100%)" offset="0.34375"/><stop stop-opacity="1" stop-color="rgb(41.836548%, 83.26416%, 100%)" offset="0.347656"/><stop stop-opacity="1" stop-color="rgb(42.497253%, 83.000183%, 100%)" offset="0.351562"/><stop stop-opacity="1" stop-color="rgb(43.156433%, 82.736206%, 100%)" offset="0.355469"/><stop stop-opacity="1" stop-color="rgb(43.817139%, 82.472229%, 100%)" offset="0.359375"/><stop stop-opacity="1" stop-color="rgb(44.476318%, 82.208252%, 100%)" offset="0.363281"/><stop stop-opacity="1" stop-color="rgb(45.137024%, 81.944275%, 100%)" offset="0.367187"/><stop stop-opacity="1" stop-color="rgb(45.796204%, 81.680298%, 100%)" offset="0.371094"/><stop stop-opacity="1" stop-color="rgb(46.456909%, 81.416321%, 100%)" offset="0.375"/><stop stop-opacity="1" stop-color="rgb(47.116089%, 81.152344%, 100%)" offset="0.378906"/><stop stop-opacity="1" stop-color="rgb(47.776794%, 80.888367%, 100%)" offset="0.382812"/><stop stop-opacity="1" stop-color="rgb(48.435974%, 80.62439%, 100%)" offset="0.386719"/><stop stop-opacity="1" stop-color="rgb(49.09668%, 80.360413%, 100%)" offset="0.390625"/><stop stop-opacity="1" stop-color="rgb(49.755859%, 80.096436%, 100%)" offset="0.394531"/><stop stop-opacity="1" stop-color="rgb(50.416565%, 79.832458%, 100%)" offset="0.398437"/><stop stop-opacity="1" stop-color="rgb(51.075745%, 79.568481%, 100%)" offset="0.402344"/><stop stop-opacity="1" stop-color="rgb(51.73645%, 79.304504%, 100%)" offset="0.40625"/><stop stop-opacity="1" stop-color="rgb(52.39563%, 79.040527%, 100%)" offset="0.410156"/><stop stop-opacity="1" stop-color="rgb(53.056335%, 78.77655%, 100%)" offset="0.414062"/><stop stop-opacity="1" stop-color="rgb(53.715515%, 78.512573%, 100%)" offset="0.417969"/><stop stop-opacity="1" stop-color="rgb(54.376221%, 78.248596%, 100%)" offset="0.421875"/><stop stop-opacity="1" stop-color="rgb(55.0354%, 77.984619%, 100%)" offset="0.425781"/><stop stop-opacity="1" stop-color="rgb(55.696106%, 77.720642%, 100%)" offset="0.429687"/><stop stop-opacity="1" stop-color="rgb(56.355286%, 77.456665%, 100%)" offset="0.433594"/><stop stop-opacity="1" stop-color="rgb(57.015991%, 77.192688%, 100%)" offset="0.4375"/><stop stop-opacity="1" stop-color="rgb(57.675171%, 76.928711%, 100%)" offset="0.441406"/><stop stop-opacity="1" stop-color="rgb(58.335876%, 76.664734%, 100%)" offset="0.445312"/><stop stop-opacity="1" stop-color="rgb(58.995056%, 76.400757%, 100%)" offset="0.449219"/><stop stop-opacity="1" stop-color="rgb(59.654236%, 76.13678%, 100%)" offset="0.453125"/><stop stop-opacity="1" stop-color="rgb(60.313416%, 75.872803%, 100%)" offset="0.457031"/><stop stop-opacity="1" stop-color="rgb(60.974121%, 75.608826%, 100%)" offset="0.460937"/><stop stop-opacity="1" stop-color="rgb(61.633301%, 75.344849%, 100%)" offset="0.464844"/><stop stop-opacity="1" stop-color="rgb(62.294006%, 75.080872%, 100%)" offset="0.46875"/><stop stop-opacity="1" stop-color="rgb(62.953186%, 74.816895%, 100%)" offset="0.472656"/><stop stop-opacity="1" stop-color="rgb(63.613892%, 74.552917%, 100%)" offset="0.476562"/><stop stop-opacity="1" stop-color="rgb(64.273071%, 74.28894%, 100%)" offset="0.480469"/><stop stop-opacity="1" stop-color="rgb(64.933777%, 74.024963%, 100%)" offset="0.484375"/><stop stop-opacity="1" stop-color="rgb(65.592957%, 73.760986%, 100%)" offset="0.488281"/><stop stop-opacity="1" stop-color="rgb(66.253662%, 73.497009%, 100%)" offset="0.492187"/><stop stop-opacity="1" stop-color="rgb(66.912842%, 73.233032%, 100%)" offset="0.496094"/><stop stop-opacity="1" stop-color="rgb(67.573547%, 72.969055%, 100%)" offset="0.5"/><stop stop-opacity="1" stop-color="rgb(68.232727%, 72.705078%, 100%)" offset="0.503906"/><stop stop-opacity="1" stop-color="rgb(68.893433%, 72.441101%, 100%)" offset="0.507812"/><stop stop-opacity="1" stop-color="rgb(69.552612%, 72.177124%, 100%)" offset="0.511719"/><stop stop-opacity="1" stop-color="rgb(70.213318%, 71.913147%, 100%)" offset="0.515625"/><stop stop-opacity="1" stop-color="rgb(70.872498%, 71.64917%, 100%)" offset="0.519531"/><stop stop-opacity="1" stop-color="rgb(71.533203%, 71.385193%, 100%)" offset="0.523438"/><stop stop-opacity="1" stop-color="rgb(72.192383%, 71.121216%, 100%)" offset="0.527344"/><stop stop-opacity="1" stop-color="rgb(72.853088%, 70.857239%, 100%)" offset="0.53125"/><stop stop-opacity="1" stop-color="rgb(73.512268%, 70.593262%, 100%)" offset="0.535156"/><stop stop-opacity="1" stop-color="rgb(74.172974%, 70.329285%, 100%)" offset="0.539062"/><stop stop-opacity="1" stop-color="rgb(74.832153%, 70.065308%, 100%)" offset="0.542969"/><stop stop-opacity="1" stop-color="rgb(75.492859%, 69.801331%, 100%)" offset="0.546875"/><stop stop-opacity="1" stop-color="rgb(76.152039%, 69.537354%, 100%)" offset="0.550781"/><stop stop-opacity="1" stop-color="rgb(76.812744%, 69.273376%, 100%)" offset="0.554688"/><stop stop-opacity="1" stop-color="rgb(77.471924%, 69.009399%, 100%)" offset="0.558594"/><stop stop-opacity="1" stop-color="rgb(78.132629%, 68.745422%, 100%)" offset="0.5625"/><stop stop-opacity="1" stop-color="rgb(78.791809%, 68.481445%, 100%)" offset="0.566406"/><stop stop-opacity="1" stop-color="rgb(79.452515%, 68.217468%, 100%)" offset="0.570312"/><stop stop-opacity="1" stop-color="rgb(80.111694%, 67.953491%, 100%)" offset="0.574219"/><stop stop-opacity="1" stop-color="rgb(80.770874%, 67.69104%, 100%)" offset="0.578125"/><stop stop-opacity="1" stop-color="rgb(81.430054%, 67.427063%, 100%)" offset="0.582031"/><stop stop-opacity="1" stop-color="rgb(82.090759%, 67.163086%, 100%)" offset="0.585938"/><stop stop-opacity="1" stop-color="rgb(82.749939%, 66.899109%, 100%)" offset="0.589844"/><stop stop-opacity="1" stop-color="rgb(83.410645%, 66.635132%, 100%)" offset="0.59375"/><stop stop-opacity="1" stop-color="rgb(84.069824%, 66.371155%, 100%)" offset="0.597656"/><stop stop-opacity="1" stop-color="rgb(84.73053%, 66.107178%, 100%)" offset="0.601562"/><stop stop-opacity="1" stop-color="rgb(85.389709%, 65.843201%, 100%)" offset="0.605469"/><stop stop-opacity="1" stop-color="rgb(86.050415%, 65.579224%, 100%)" offset="0.609375"/><stop stop-opacity="1" stop-color="rgb(86.709595%, 65.315247%, 100%)" offset="0.613281"/><stop stop-opacity="1" stop-color="rgb(87.3703%, 65.05127%, 100%)" offset="0.617188"/><stop stop-opacity="1" stop-color="rgb(88.02948%, 64.787292%, 100%)" offset="0.621094"/><stop stop-opacity="1" stop-color="rgb(88.690186%, 64.523315%, 100%)" offset="0.625"/><stop stop-opacity="1" stop-color="rgb(89.349365%, 64.259338%, 100%)" offset="0.628906"/><stop stop-opacity="1" stop-color="rgb(90.010071%, 63.995361%, 100%)" offset="0.632812"/><stop stop-opacity="1" stop-color="rgb(90.66925%, 63.731384%, 100%)" offset="0.636719"/><stop stop-opacity="1" stop-color="rgb(91.329956%, 63.467407%, 100%)" offset="0.640625"/><stop stop-opacity="1" stop-color="rgb(91.989136%, 63.20343%, 100%)" offset="0.644531"/><stop stop-opacity="1" stop-color="rgb(92.649841%, 62.939453%, 100%)" offset="0.648437"/><stop stop-opacity="1" stop-color="rgb(93.309021%, 62.675476%, 100%)" offset="0.652344"/><stop stop-opacity="1" stop-color="rgb(93.969727%, 62.411499%, 100%)" offset="0.65625"/><stop stop-opacity="1" stop-color="rgb(94.628906%, 62.147522%, 100%)" offset="0.660156"/><stop stop-opacity="1" stop-color="rgb(95.289612%, 61.883545%, 100%)" offset="0.664062"/><stop stop-opacity="1" stop-color="rgb(95.948792%, 61.619568%, 100%)" offset="0.667969"/><stop stop-opacity="1" stop-color="rgb(96.609497%, 61.355591%, 100%)" offset="0.671875"/><stop stop-opacity="1" stop-color="rgb(97.268677%, 61.091614%, 100%)" offset="0.675781"/><stop stop-opacity="1" stop-color="rgb(97.929382%, 60.827637%, 100%)" offset="0.679688"/><stop stop-opacity="1" stop-color="rgb(98.588562%, 60.56366%, 100%)" offset="0.683594"/><stop stop-opacity="1" stop-color="rgb(99.249268%, 60.299683%, 100%)" offset="0.6875"/><stop stop-opacity="1" stop-color="rgb(99.624634%, 60.148621%, 100%)" offset="0.691406"/><stop stop-opacity="1" stop-color="rgb(100%, 59.999084%, 100%)" offset="0.695312"/><stop stop-opacity="1" stop-color="rgb(100%, 59.999084%, 100%)" offset="0.703125"/><stop stop-opacity="1" stop-color="rgb(100%, 59.999084%, 100%)" offset="0.71875"/><stop stop-opacity="1" stop-color="rgb(100%, 59.999084%, 100%)" offset="0.75"/><stop stop-opacity="1" stop-color="rgb(100%, 59.999084%, 100%)" offset="1"/></linearGradient><clipPath id="id4"><path d="M 21 131 L 362 131 L 362 240 L 21 240 Z M 21 131 " clip-rule="nonzero"/></clipPath><clipPath id="id5"><path d="M 82.210938 190.082031 C 57.246094 198.425781 42.488281 205.648438 37.769531 211.839844 C 35.539062 214.765625 41.375 217.34375 48.667969 216.484375 C 56.816406 215.625 66.851562 211.066406 72.515625 210.035156 C 83.238281 208.058594 96.277344 214.421875 101.425781 215.023438 C 106.574219 215.625 114.722656 200.574219 131.539062 204.273438 C 148.351562 208.058594 152.46875 197.566406 163.535156 196.535156 C 174.601562 195.5 178.808594 202.382812 196.652344 196.878906 C 214.496094 191.375 215.953125 181.3125 227.449219 181.140625 C 238.945312 181.054688 246.664062 183.890625 259.105469 179.507812 C 271.542969 175.121094 273.261719 168.671875 281.496094 168.757812 C 289.730469 168.84375 314.09375 168.5 317.957031 161.617188 C 321.816406 154.738281 323.101562 152.417969 329.195312 150.785156 C 333.054688 149.75 335.542969 147.6875 335.285156 145.367188 C 334.085938 134.960938 286.214844 144.59375 278.492188 145.882812 C 278.492188 145.882812 299.425781 139.863281 313.496094 137.625 C 327.5625 135.390625 346.523438 133.414062 355.445312 136.851562 C 364.453125 140.378906 363.9375 150.613281 352.441406 156.804688 C 340.945312 163.082031 347.46875 180.023438 331.769531 182 C 316.070312 183.976562 300.882812 171.25 293.675781 180.28125 C 286.472656 189.308594 287.671875 216.226562 256.53125 208.746094 C 225.390625 201.261719 223.417969 198.769531 212.695312 213.734375 C 201.96875 228.695312 180.09375 208.230469 169.886719 207.972656 C 159.675781 207.714844 150.667969 243.402344 131.796875 234.457031 C 112.921875 225.515625 116.609375 220.441406 103.65625 225.945312 C 90.703125 231.449219 84.953125 232.652344 76.976562 227.664062 C 68.996094 222.675781 58.53125 239.1875 48.066406 234.371094 C 37.597656 229.554688 42.058594 223.878906 29.878906 222.417969 C 21.730469 221.386719 19.5 219.152344 22.070312 215.539062 C 30.136719 204.703125 68.742188 193.953125 82.210938 190.082031 Z M 76.117188 197.136719 C 75.519531 199.371094 78.175781 200.230469 79.808594 199.542969 C 81.4375 198.855469 82.039062 196.535156 79.464844 195.414062 C 78.261719 194.898438 76.632812 195.15625 76.117188 197.136719 Z M 27.390625 228.4375 C 23.1875 228.78125 25.417969 233.082031 28.761719 233.941406 C 33.566406 235.230469 35.199219 232.910156 34.082031 230.847656 C 33.222656 229.46875 30.992188 228.179688 27.390625 228.4375 Z M 157.703125 237.8125 C 158.21875 238.671875 159.246094 239.015625 160.191406 239.273438 C 161.390625 239.53125 163.535156 238.84375 163.792969 236.695312 C 164.566406 230.242188 155.214844 233.683594 157.703125 237.8125 Z M 164.824219 223.792969 C 163.28125 230.933594 169.285156 233.769531 174.347656 232.566406 C 177.863281 231.707031 180.953125 229.125 181.636719 226.03125 C 183.355469 217.945312 167.484375 211.753906 164.824219 223.792969 Z M 303.027344 207.023438 C 307.746094 214.679688 328.164062 210.980469 323.875 200.144531 C 322.246094 195.929688 316.925781 192.320312 312.035156 192.0625 C 304.230469 191.632812 299.941406 202.039062 303.027344 207.023438 Z M 287.242188 138.742188 C 291.703125 140.464844 295.992188 135.648438 293.933594 133.242188 C 289.816406 128.339844 282.097656 136.765625 287.242188 138.742188 Z M 287.242188 138.742188 " clip-rule="evenodd"/></clipPath><linearGradient x1="9386.897987" gradientTransform="matrix(0.024321, 0, 0, -0.0243799, -18.049794, -17.58673)" y1="-11986.626569" x2="7913.631464" gradientUnits="userSpaceOnUse" y2="-4697.9392" id="id6"><stop stop-opacity="1" stop-color="rgb(48.535156%, 19.155884%, 64.216614%)" offset="0"/><stop stop-opacity="1" stop-color="rgb(48.748779%, 19.325256%, 64.364624%)" offset="0.00390625"/><stop stop-opacity="1" stop-color="rgb(48.962402%, 19.494629%, 64.512634%)" offset="0.0078125"/><stop stop-opacity="1" stop-color="rgb(49.1745%, 19.664001%, 64.660645%)" offset="0.0117187"/><stop stop-opacity="1" stop-color="rgb(49.388123%, 19.833374%, 64.810181%)" offset="0.015625"/><stop stop-opacity="1" stop-color="rgb(49.601746%, 20.002747%, 64.958191%)" offset="0.0195312"/><stop stop-opacity="1" stop-color="rgb(49.815369%, 20.172119%, 65.107727%)" offset="0.0234375"/><stop stop-opacity="1" stop-color="rgb(50.028992%, 20.341492%, 65.255737%)" offset="0.0273437"/><stop stop-opacity="1" stop-color="rgb(50.242615%, 20.510864%, 65.403748%)" offset="0.03125"/><stop stop-opacity="1" stop-color="rgb(50.456238%, 20.680237%, 65.551758%)" offset="0.0351562"/><stop stop-opacity="1" stop-color="rgb(50.669861%, 20.849609%, 65.701294%)" offset="0.0390625"/><stop stop-opacity="1" stop-color="rgb(50.883484%, 21.018982%, 65.849304%)" offset="0.0429687"/><stop stop-opacity="1" stop-color="rgb(51.097107%, 21.188354%, 65.997314%)" offset="0.046875"/><stop stop-opacity="1" stop-color="rgb(51.31073%, 21.357727%, 66.145325%)" offset="0.0507812"/><stop stop-opacity="1" stop-color="rgb(51.524353%, 21.5271%, 66.294861%)" offset="0.0546875"/><stop stop-opacity="1" stop-color="rgb(51.737976%, 21.696472%, 66.442871%)" offset="0.0585937"/><stop stop-opacity="1" stop-color="rgb(51.951599%, 21.867371%, 66.592407%)" offset="0.0625"/><stop stop-opacity="1" stop-color="rgb(52.163696%, 22.036743%, 66.740417%)" offset="0.0664062"/><stop stop-opacity="1" stop-color="rgb(52.377319%, 22.206116%, 66.888428%)" offset="0.0703125"/><stop stop-opacity="1" stop-color="rgb(52.590942%, 22.375488%, 67.036438%)" offset="0.0742187"/><stop stop-opacity="1" stop-color="rgb(52.804565%, 22.544861%, 67.185974%)" offset="0.078125"/><stop stop-opacity="1" stop-color="rgb(53.018188%, 22.714233%, 67.333984%)" offset="0.0820312"/><stop stop-opacity="1" stop-color="rgb(53.231812%, 22.883606%, 67.481995%)" offset="0.0859375"/><stop stop-opacity="1" stop-color="rgb(53.445435%, 23.052979%, 67.630005%)" offset="0.0898438"/><stop stop-opacity="1" stop-color="rgb(53.659058%, 23.222351%, 67.779541%)" offset="0.09375"/><stop stop-opacity="1" stop-color="rgb(53.872681%, 23.391724%, 67.927551%)" offset="0.0976563"/><stop stop-opacity="1" stop-color="rgb(54.086304%, 23.561096%, 68.075562%)" offset="0.101563"/><stop stop-opacity="1" stop-color="rgb(54.299927%, 23.730469%, 68.223572%)" offset="0.105469"/><stop stop-opacity="1" stop-color="rgb(54.51355%, 23.899841%, 68.373108%)" offset="0.109375"/><stop stop-opacity="1" stop-color="rgb(54.727173%, 24.069214%, 68.521118%)" offset="0.113281"/><stop stop-opacity="1" stop-color="rgb(54.940796%, 24.238586%, 68.670654%)" offset="0.117188"/><stop stop-opacity="1" stop-color="rgb(55.152893%, 24.407959%, 68.818665%)" offset="0.121094"/><stop stop-opacity="1" stop-color="rgb(55.366516%, 24.577332%, 68.966675%)" offset="0.125"/><stop stop-opacity="1" stop-color="rgb(55.580139%, 24.746704%, 69.114685%)" offset="0.128906"/><stop stop-opacity="1" stop-color="rgb(55.793762%, 24.916077%, 69.264221%)" offset="0.132813"/><stop stop-opacity="1" stop-color="rgb(56.007385%, 25.085449%, 69.412231%)" offset="0.136719"/><stop stop-opacity="1" stop-color="rgb(56.221008%, 25.256348%, 69.560242%)" offset="0.140625"/><stop stop-opacity="1" stop-color="rgb(56.434631%, 25.42572%, 69.708252%)" offset="0.144531"/><stop stop-opacity="1" stop-color="rgb(56.648254%, 25.595093%, 69.857788%)" offset="0.148438"/><stop stop-opacity="1" stop-color="rgb(56.861877%, 25.764465%, 70.005798%)" offset="0.152344"/><stop stop-opacity="1" stop-color="rgb(57.0755%, 25.933838%, 70.153809%)" offset="0.15625"/><stop stop-opacity="1" stop-color="rgb(57.289124%, 26.10321%, 70.301819%)" offset="0.160156"/><stop stop-opacity="1" stop-color="rgb(57.502747%, 26.272583%, 70.451355%)" offset="0.164063"/><stop stop-opacity="1" stop-color="rgb(57.714844%, 26.441956%, 70.599365%)" offset="0.167969"/><stop stop-opacity="1" stop-color="rgb(57.928467%, 26.611328%, 70.748901%)" offset="0.171875"/><stop stop-opacity="1" stop-color="rgb(58.14209%, 26.780701%, 70.896912%)" offset="0.175781"/><stop stop-opacity="1" stop-color="rgb(58.355713%, 26.950073%, 71.044922%)" offset="0.179688"/><stop stop-opacity="1" stop-color="rgb(58.569336%, 27.119446%, 71.192932%)" offset="0.183594"/><stop stop-opacity="1" stop-color="rgb(58.782959%, 27.288818%, 71.342468%)" offset="0.1875"/><stop stop-opacity="1" stop-color="rgb(58.996582%, 27.458191%, 71.490479%)" offset="0.191406"/><stop stop-opacity="1" stop-color="rgb(59.210205%, 27.627563%, 71.638489%)" offset="0.195312"/><stop stop-opacity="1" stop-color="rgb(59.423828%, 27.796936%, 71.786499%)" offset="0.199219"/><stop stop-opacity="1" stop-color="rgb(59.637451%, 27.966309%, 71.936035%)" offset="0.203125"/><stop stop-opacity="1" stop-color="rgb(59.851074%, 28.135681%, 72.084045%)" offset="0.207031"/><stop stop-opacity="1" stop-color="rgb(60.064697%, 28.305054%, 72.233582%)" offset="0.210937"/><stop stop-opacity="1" stop-color="rgb(60.27832%, 28.474426%, 72.381592%)" offset="0.214844"/><stop stop-opacity="1" stop-color="rgb(60.491943%, 28.645325%, 72.529602%)" offset="0.21875"/><stop stop-opacity="1" stop-color="rgb(60.704041%, 28.814697%, 72.677612%)" offset="0.222656"/><stop stop-opacity="1" stop-color="rgb(60.917664%, 28.98407%, 72.827148%)" offset="0.226562"/><stop stop-opacity="1" stop-color="rgb(61.131287%, 29.153442%, 72.975159%)" offset="0.230469"/><stop stop-opacity="1" stop-color="rgb(61.34491%, 29.322815%, 73.123169%)" offset="0.234375"/><stop stop-opacity="1" stop-color="rgb(61.558533%, 29.492188%, 73.271179%)" offset="0.238281"/><stop stop-opacity="1" stop-color="rgb(61.772156%, 29.66156%, 73.420715%)" offset="0.242188"/><stop stop-opacity="1" stop-color="rgb(61.985779%, 29.830933%, 73.568726%)" offset="0.246094"/><stop stop-opacity="1" stop-color="rgb(62.199402%, 30.000305%, 73.716736%)" offset="0.25"/><stop stop-opacity="1" stop-color="rgb(62.413025%, 30.169678%, 73.864746%)" offset="0.253906"/><stop stop-opacity="1" stop-color="rgb(62.626648%, 30.33905%, 74.014282%)" offset="0.257812"/><stop stop-opacity="1" stop-color="rgb(62.840271%, 30.508423%, 74.162292%)" offset="0.261719"/><stop stop-opacity="1" stop-color="rgb(63.053894%, 30.677795%, 74.311829%)" offset="0.265625"/><stop stop-opacity="1" stop-color="rgb(63.267517%, 30.847168%, 74.459839%)" offset="0.269531"/><stop stop-opacity="1" stop-color="rgb(63.48114%, 31.016541%, 74.607849%)" offset="0.273438"/><stop stop-opacity="1" stop-color="rgb(63.693237%, 31.185913%, 74.755859%)" offset="0.277344"/><stop stop-opacity="1" stop-color="rgb(63.90686%, 31.355286%, 74.905396%)" offset="0.28125"/><stop stop-opacity="1" stop-color="rgb(64.120483%, 31.524658%, 75.053406%)" offset="0.285156"/><stop stop-opacity="1" stop-color="rgb(64.334106%, 31.694031%, 75.201416%)" offset="0.289063"/><stop stop-opacity="1" stop-color="rgb(64.547729%, 31.863403%, 75.349426%)" offset="0.292969"/><stop stop-opacity="1" stop-color="rgb(64.761353%, 32.034302%, 75.498962%)" offset="0.296875"/><stop stop-opacity="1" stop-color="rgb(64.974976%, 32.203674%, 75.646973%)" offset="0.300781"/><stop stop-opacity="1" stop-color="rgb(65.188599%, 32.373047%, 75.794983%)" offset="0.304688"/><stop stop-opacity="1" stop-color="rgb(65.402222%, 32.542419%, 75.942993%)" offset="0.308594"/><stop stop-opacity="1" stop-color="rgb(65.615845%, 32.711792%, 76.092529%)" offset="0.3125"/><stop stop-opacity="1" stop-color="rgb(65.829468%, 32.881165%, 76.24054%)" offset="0.316406"/><stop stop-opacity="1" stop-color="rgb(66.043091%, 33.050537%, 76.390076%)" offset="0.320313"/><stop stop-opacity="1" stop-color="rgb(66.256714%, 33.21991%, 76.538086%)" offset="0.324219"/><stop stop-opacity="1" stop-color="rgb(66.470337%, 33.389282%, 76.686096%)" offset="0.328125"/><stop stop-opacity="1" stop-color="rgb(66.682434%, 33.558655%, 76.834106%)" offset="0.332031"/><stop stop-opacity="1" stop-color="rgb(66.896057%, 33.728027%, 76.983643%)" offset="0.335938"/><stop stop-opacity="1" stop-color="rgb(67.10968%, 33.8974%, 77.131653%)" offset="0.339844"/><stop stop-opacity="1" stop-color="rgb(67.323303%, 34.066772%, 77.279663%)" offset="0.34375"/><stop stop-opacity="1" stop-color="rgb(67.536926%, 34.236145%, 77.427673%)" offset="0.347656"/><stop stop-opacity="1" stop-color="rgb(67.750549%, 34.405518%, 77.577209%)" offset="0.351563"/><stop stop-opacity="1" stop-color="rgb(67.964172%, 34.57489%, 77.72522%)" offset="0.355469"/><stop stop-opacity="1" stop-color="rgb(68.177795%, 34.744263%, 77.874756%)" offset="0.359375"/><stop stop-opacity="1" stop-color="rgb(68.391418%, 34.913635%, 78.022766%)" offset="0.363281"/><stop stop-opacity="1" stop-color="rgb(68.605042%, 35.083008%, 78.170776%)" offset="0.367188"/><stop stop-opacity="1" stop-color="rgb(68.818665%, 35.25238%, 78.318787%)" offset="0.371094"/><stop stop-opacity="1" stop-color="rgb(69.032288%, 35.423279%, 78.468323%)" offset="0.375"/><stop stop-opacity="1" stop-color="rgb(69.245911%, 35.592651%, 78.616333%)" offset="0.378906"/><stop stop-opacity="1" stop-color="rgb(69.459534%, 35.762024%, 78.764343%)" offset="0.382813"/><stop stop-opacity="1" stop-color="rgb(69.671631%, 35.931396%, 78.912354%)" offset="0.386719"/><stop stop-opacity="1" stop-color="rgb(69.885254%, 36.100769%, 79.06189%)" offset="0.390625"/><stop stop-opacity="1" stop-color="rgb(70.098877%, 36.270142%, 79.2099%)" offset="0.394531"/><stop stop-opacity="1" stop-color="rgb(70.3125%, 36.439514%, 79.35791%)" offset="0.398438"/><stop stop-opacity="1" stop-color="rgb(70.526123%, 36.608887%, 79.50592%)" offset="0.402344"/><stop stop-opacity="1" stop-color="rgb(70.739746%, 36.778259%, 79.655457%)" offset="0.40625"/><stop stop-opacity="1" stop-color="rgb(70.953369%, 36.947632%, 79.803467%)" offset="0.410156"/><stop stop-opacity="1" stop-color="rgb(71.166992%, 37.117004%, 79.953003%)" offset="0.414063"/><stop stop-opacity="1" stop-color="rgb(71.380615%, 37.286377%, 80.101013%)" offset="0.417969"/><stop stop-opacity="1" stop-color="rgb(71.594238%, 37.45575%, 80.249023%)" offset="0.421875"/><stop stop-opacity="1" stop-color="rgb(71.807861%, 37.625122%, 80.397034%)" offset="0.425781"/><stop stop-opacity="1" stop-color="rgb(72.021484%, 37.794495%, 80.54657%)" offset="0.429688"/><stop stop-opacity="1" stop-color="rgb(72.233582%, 37.963867%, 80.69458%)" offset="0.433594"/><stop stop-opacity="1" stop-color="rgb(72.447205%, 38.13324%, 80.84259%)" offset="0.4375"/><stop stop-opacity="1" stop-color="rgb(72.660828%, 38.302612%, 80.990601%)" offset="0.441406"/><stop stop-opacity="1" stop-color="rgb(72.874451%, 38.471985%, 81.140137%)" offset="0.445313"/><stop stop-opacity="1" stop-color="rgb(73.088074%, 38.641357%, 81.288147%)" offset="0.449219"/><stop stop-opacity="1" stop-color="rgb(73.301697%, 38.812256%, 81.436157%)" offset="0.453125"/><stop stop-opacity="1" stop-color="rgb(73.51532%, 38.981628%, 81.584167%)" offset="0.457031"/><stop stop-opacity="1" stop-color="rgb(73.728943%, 39.151001%, 81.733704%)" offset="0.460938"/><stop stop-opacity="1" stop-color="rgb(73.942566%, 39.320374%, 81.881714%)" offset="0.464844"/><stop stop-opacity="1" stop-color="rgb(74.156189%, 39.489746%, 82.03125%)" offset="0.46875"/><stop stop-opacity="1" stop-color="rgb(74.369812%, 39.659119%, 82.17926%)" offset="0.472656"/><stop stop-opacity="1" stop-color="rgb(74.583435%, 39.828491%, 82.327271%)" offset="0.476563"/><stop stop-opacity="1" stop-color="rgb(74.797058%, 39.997864%, 82.475281%)" offset="0.480469"/><stop stop-opacity="1" stop-color="rgb(75.010681%, 40.167236%, 82.624817%)" offset="0.484375"/><stop stop-opacity="1" stop-color="rgb(75.222778%, 40.336609%, 82.772827%)" offset="0.488281"/><stop stop-opacity="1" stop-color="rgb(75.436401%, 40.505981%, 82.920837%)" offset="0.492188"/><stop stop-opacity="1" stop-color="rgb(75.650024%, 40.675354%, 83.068848%)" offset="0.496094"/><stop stop-opacity="1" stop-color="rgb(75.863647%, 40.844727%, 83.218384%)" offset="0.5"/><stop stop-opacity="1" stop-color="rgb(76.077271%, 41.014099%, 83.366394%)" offset="0.503906"/><stop stop-opacity="1" stop-color="rgb(76.290894%, 41.183472%, 83.51593%)" offset="0.507813"/><stop stop-opacity="1" stop-color="rgb(76.504517%, 41.352844%, 83.66394%)" offset="0.511719"/><stop stop-opacity="1" stop-color="rgb(76.71814%, 41.522217%, 83.811951%)" offset="0.515625"/><stop stop-opacity="1" stop-color="rgb(76.931763%, 41.691589%, 83.959961%)" offset="0.519531"/><stop stop-opacity="1" stop-color="rgb(77.145386%, 41.860962%, 84.109497%)" offset="0.523438"/><stop stop-opacity="1" stop-color="rgb(77.359009%, 42.030334%, 84.257507%)" offset="0.527344"/><stop stop-opacity="1" stop-color="rgb(77.572632%, 42.201233%, 84.405518%)" offset="0.53125"/><stop stop-opacity="1" stop-color="rgb(77.786255%, 42.370605%, 84.553528%)" offset="0.535156"/><stop stop-opacity="1" stop-color="rgb(77.999878%, 42.539978%, 84.703064%)" offset="0.539062"/><stop stop-opacity="1" stop-color="rgb(78.211975%, 42.709351%, 84.851074%)" offset="0.542969"/><stop stop-opacity="1" stop-color="rgb(78.425598%, 42.878723%, 84.999084%)" offset="0.546875"/><stop stop-opacity="1" stop-color="rgb(78.639221%, 43.048096%, 85.147095%)" offset="0.550781"/><stop stop-opacity="1" stop-color="rgb(78.852844%, 43.217468%, 85.296631%)" offset="0.554688"/><stop stop-opacity="1" stop-color="rgb(79.066467%, 43.386841%, 85.444641%)" offset="0.558594"/><stop stop-opacity="1" stop-color="rgb(79.28009%, 43.556213%, 85.594177%)" offset="0.5625"/><stop stop-opacity="1" stop-color="rgb(79.493713%, 43.725586%, 85.742188%)" offset="0.566406"/><stop stop-opacity="1" stop-color="rgb(79.707336%, 43.894958%, 85.890198%)" offset="0.570312"/><stop stop-opacity="1" stop-color="rgb(79.920959%, 44.064331%, 86.038208%)" offset="0.574219"/><stop stop-opacity="1" stop-color="rgb(80.134583%, 44.233704%, 86.187744%)" offset="0.578125"/><stop stop-opacity="1" stop-color="rgb(80.348206%, 44.403076%, 86.335754%)" offset="0.582031"/><stop stop-opacity="1" stop-color="rgb(80.561829%, 44.572449%, 86.483765%)" offset="0.585938"/><stop stop-opacity="1" stop-color="rgb(80.775452%, 44.741821%, 86.631775%)" offset="0.589844"/><stop stop-opacity="1" stop-color="rgb(80.989075%, 44.911194%, 86.781311%)" offset="0.59375"/><stop stop-opacity="1" stop-color="rgb(81.201172%, 45.080566%, 86.929321%)" offset="0.597656"/><stop stop-opacity="1" stop-color="rgb(81.414795%, 45.249939%, 87.077332%)" offset="0.601562"/><stop stop-opacity="1" stop-color="rgb(81.628418%, 45.419312%, 87.225342%)" offset="0.605469"/><stop stop-opacity="1" stop-color="rgb(81.842041%, 45.588684%, 87.374878%)" offset="0.609375"/><stop stop-opacity="1" stop-color="rgb(82.055664%, 45.758057%, 87.522888%)" offset="0.613281"/><stop stop-opacity="1" stop-color="rgb(82.269287%, 45.928955%, 87.672424%)" offset="0.617188"/><stop stop-opacity="1" stop-color="rgb(82.48291%, 46.098328%, 87.820435%)" offset="0.621094"/><stop stop-opacity="1" stop-color="rgb(82.696533%, 46.2677%, 87.968445%)" offset="0.625"/><stop stop-opacity="1" stop-color="rgb(82.910156%, 46.437073%, 88.116455%)" offset="0.628906"/><stop stop-opacity="1" stop-color="rgb(83.123779%, 46.606445%, 88.265991%)" offset="0.632812"/><stop stop-opacity="1" stop-color="rgb(83.337402%, 46.775818%, 88.414001%)" offset="0.636719"/><stop stop-opacity="1" stop-color="rgb(83.551025%, 46.94519%, 88.562012%)" offset="0.640625"/><stop stop-opacity="1" stop-color="rgb(83.763123%, 47.114563%, 88.710022%)" offset="0.644531"/><stop stop-opacity="1" stop-color="rgb(83.976746%, 47.283936%, 88.859558%)" offset="0.648438"/><stop stop-opacity="1" stop-color="rgb(84.190369%, 47.453308%, 89.007568%)" offset="0.652344"/><stop stop-opacity="1" stop-color="rgb(84.403992%, 47.622681%, 89.157104%)" offset="0.65625"/><stop stop-opacity="1" stop-color="rgb(84.617615%, 47.792053%, 89.305115%)" offset="0.660156"/><stop stop-opacity="1" stop-color="rgb(84.831238%, 47.961426%, 89.453125%)" offset="0.664063"/><stop stop-opacity="1" stop-color="rgb(85.044861%, 48.130798%, 89.601135%)" offset="0.667969"/><stop stop-opacity="1" stop-color="rgb(85.258484%, 48.300171%, 89.750671%)" offset="0.671875"/><stop stop-opacity="1" stop-color="rgb(85.472107%, 48.469543%, 89.898682%)" offset="0.675781"/><stop stop-opacity="1" stop-color="rgb(85.68573%, 48.638916%, 90.046692%)" offset="0.679688"/><stop stop-opacity="1" stop-color="rgb(85.899353%, 48.808289%, 90.194702%)" offset="0.683594"/><stop stop-opacity="1" stop-color="rgb(86.112976%, 48.977661%, 90.344238%)" offset="0.6875"/><stop stop-opacity="1" stop-color="rgb(86.326599%, 49.147034%, 90.492249%)" offset="0.691406"/><stop stop-opacity="1" stop-color="rgb(86.540222%, 49.317932%, 90.640259%)" offset="0.695313"/><stop stop-opacity="1" stop-color="rgb(86.752319%, 49.487305%, 90.788269%)" offset="0.699219"/><stop stop-opacity="1" stop-color="rgb(86.965942%, 49.656677%, 90.937805%)" offset="0.703125"/><stop stop-opacity="1" stop-color="rgb(87.179565%, 49.82605%, 91.085815%)" offset="0.707031"/><stop stop-opacity="1" stop-color="rgb(87.393188%, 49.995422%, 91.235352%)" offset="0.710938"/><stop stop-opacity="1" stop-color="rgb(87.606812%, 50.164795%, 91.383362%)" offset="0.714844"/><stop stop-opacity="1" stop-color="rgb(87.820435%, 50.334167%, 91.531372%)" offset="0.71875"/><stop stop-opacity="1" stop-color="rgb(88.034058%, 50.50354%, 91.679382%)" offset="0.722656"/><stop stop-opacity="1" stop-color="rgb(88.247681%, 50.672913%, 91.828918%)" offset="0.726563"/><stop stop-opacity="1" stop-color="rgb(88.461304%, 50.842285%, 91.976929%)" offset="0.730469"/><stop stop-opacity="1" stop-color="rgb(88.674927%, 51.011658%, 92.124939%)" offset="0.734375"/><stop stop-opacity="1" stop-color="rgb(88.88855%, 51.18103%, 92.272949%)" offset="0.738281"/><stop stop-opacity="1" stop-color="rgb(89.102173%, 51.350403%, 92.422485%)" offset="0.742188"/><stop stop-opacity="1" stop-color="rgb(89.315796%, 51.519775%, 92.570496%)" offset="0.746094"/><stop stop-opacity="1" stop-color="rgb(89.529419%, 51.689148%, 92.718506%)" offset="0.75"/><stop stop-opacity="1" stop-color="rgb(89.741516%, 51.858521%, 92.866516%)" offset="0.753906"/><stop stop-opacity="1" stop-color="rgb(89.955139%, 52.027893%, 93.016052%)" offset="0.757813"/><stop stop-opacity="1" stop-color="rgb(90.168762%, 52.197266%, 93.164062%)" offset="0.761719"/><stop stop-opacity="1" stop-color="rgb(90.382385%, 52.366638%, 93.313599%)" offset="0.765625"/><stop stop-opacity="1" stop-color="rgb(90.596008%, 52.536011%, 93.461609%)" offset="0.769531"/><stop stop-opacity="1" stop-color="rgb(90.809631%, 52.706909%, 93.609619%)" offset="0.773438"/><stop stop-opacity="1" stop-color="rgb(91.023254%, 52.876282%, 93.757629%)" offset="0.777344"/><stop stop-opacity="1" stop-color="rgb(91.236877%, 53.045654%, 93.907166%)" offset="0.78125"/><stop stop-opacity="1" stop-color="rgb(91.4505%, 53.215027%, 94.055176%)" offset="0.785156"/><stop stop-opacity="1" stop-color="rgb(91.664124%, 53.384399%, 94.203186%)" offset="0.789063"/><stop stop-opacity="1" stop-color="rgb(91.877747%, 53.553772%, 94.351196%)" offset="0.792969"/><stop stop-opacity="1" stop-color="rgb(92.09137%, 53.723145%, 94.500732%)" offset="0.796875"/><stop stop-opacity="1" stop-color="rgb(92.304993%, 53.892517%, 94.648743%)" offset="0.800781"/><stop stop-opacity="1" stop-color="rgb(92.518616%, 54.06189%, 94.798279%)" offset="0.804688"/><stop stop-opacity="1" stop-color="rgb(92.730713%, 54.231262%, 94.946289%)" offset="0.808594"/><stop stop-opacity="1" stop-color="rgb(92.944336%, 54.400635%, 95.094299%)" offset="0.8125"/><stop stop-opacity="1" stop-color="rgb(93.157959%, 54.570007%, 95.24231%)" offset="0.816406"/><stop stop-opacity="1" stop-color="rgb(93.371582%, 54.73938%, 95.391846%)" offset="0.820313"/><stop stop-opacity="1" stop-color="rgb(93.585205%, 54.908752%, 95.539856%)" offset="0.824219"/><stop stop-opacity="1" stop-color="rgb(93.798828%, 55.078125%, 95.687866%)" offset="0.828125"/><stop stop-opacity="1" stop-color="rgb(94.012451%, 55.247498%, 95.835876%)" offset="0.832031"/><stop stop-opacity="1" stop-color="rgb(94.226074%, 55.41687%, 95.985413%)" offset="0.835938"/><stop stop-opacity="1" stop-color="rgb(94.439697%, 55.586243%, 96.133423%)" offset="0.839844"/><stop stop-opacity="1" stop-color="rgb(94.65332%, 55.755615%, 96.281433%)" offset="0.84375"/><stop stop-opacity="1" stop-color="rgb(94.866943%, 55.924988%, 96.429443%)" offset="0.847656"/><stop stop-opacity="1" stop-color="rgb(95.080566%, 56.095886%, 96.578979%)" offset="0.851563"/><stop stop-opacity="1" stop-color="rgb(95.292664%, 56.265259%, 96.72699%)" offset="0.855469"/><stop stop-opacity="1" stop-color="rgb(95.506287%, 56.434631%, 96.876526%)" offset="0.859375"/><stop stop-opacity="1" stop-color="rgb(95.71991%, 56.604004%, 97.024536%)" offset="0.863281"/><stop stop-opacity="1" stop-color="rgb(95.933533%, 56.773376%, 97.172546%)" offset="0.867188"/><stop stop-opacity="1" stop-color="rgb(96.147156%, 56.942749%, 97.320557%)" offset="0.871094"/><stop stop-opacity="1" stop-color="rgb(96.360779%, 57.112122%, 97.470093%)" offset="0.875"/><stop stop-opacity="1" stop-color="rgb(96.574402%, 57.281494%, 97.618103%)" offset="0.878906"/><stop stop-opacity="1" stop-color="rgb(96.788025%, 57.450867%, 97.766113%)" offset="0.882812"/><stop stop-opacity="1" stop-color="rgb(97.001648%, 57.620239%, 97.914124%)" offset="0.886719"/><stop stop-opacity="1" stop-color="rgb(97.215271%, 57.789612%, 98.06366%)" offset="0.890625"/><stop stop-opacity="1" stop-color="rgb(97.428894%, 57.958984%, 98.21167%)" offset="0.894531"/><stop stop-opacity="1" stop-color="rgb(97.642517%, 58.128357%, 98.35968%)" offset="0.898438"/><stop stop-opacity="1" stop-color="rgb(97.85614%, 58.297729%, 98.50769%)" offset="0.902344"/><stop stop-opacity="1" stop-color="rgb(98.069763%, 58.467102%, 98.657227%)" offset="0.90625"/><stop stop-opacity="1" stop-color="rgb(98.28186%, 58.636475%, 98.805237%)" offset="0.910156"/><stop stop-opacity="1" stop-color="rgb(98.495483%, 58.805847%, 98.954773%)" offset="0.914063"/><stop stop-opacity="1" stop-color="rgb(98.709106%, 58.97522%, 99.102783%)" offset="0.917969"/><stop stop-opacity="1" stop-color="rgb(98.922729%, 59.144592%, 99.250793%)" offset="0.921875"/><stop stop-opacity="1" stop-color="rgb(99.136353%, 59.313965%, 99.398804%)" offset="0.925781"/><stop stop-opacity="1" stop-color="rgb(99.349976%, 59.484863%, 99.54834%)" offset="0.929688"/><stop stop-opacity="1" stop-color="rgb(99.563599%, 59.654236%, 99.69635%)" offset="0.933594"/><stop stop-opacity="1" stop-color="rgb(99.777222%, 59.823608%, 99.84436%)" offset="0.9375"/><stop stop-opacity="1" stop-color="rgb(99.888611%, 59.910583%, 99.92218%)" offset="1"/></linearGradient><clipPath id="id7"><path d="M 162.222656 159 L 235.722656 159 L 235.722656 232 L 162.222656 232 Z M 162.222656 159 " clip-rule="nonzero"/></clipPath><clipPath id="id8"><path d="M 158.445312 158.886719 L 239.691406 158.886719 L 239.691406 240.132812 L 158.445312 240.132812 Z M 158.445312 158.886719 " clip-rule="nonzero"/></clipPath><clipPath id="id9"><path d="M 167 159 L 239.691406 159 L 239.691406 240.132812 L 167 240.132812 Z M 167 159 " clip-rule="nonzero"/></clipPath><clipPath id="id10"><path d="M 158.445312 114.84375 L 174.195312 114.84375 L 174.195312 202.59375 L 158.445312 202.59375 Z M 158.445312 114.84375 " clip-rule="nonzero"/></clipPath></defs><g clip-path="url(#id1)"><g clip-path="url(#id2)"><path fill="url(#id3)" d="M 76.203125 292.417969 L 76.203125 74.933594 L 293.164062 74.933594 L 293.164062 292.417969 Z M 76.203125 292.417969 " fill-rule="nonzero"/></g></g><path fill="#c521e0" d="M 150.152344 90.757812 C 149.125 91.359375 111.976562 112.601562 111.464844 150.007812 C 110.949219 187.933594 147.835938 147 167.226562 146.484375 C 186.613281 145.96875 170.226562 188.191406 177.949219 192.148438 C 185.671875 196.105469 214.839844 177.699219 221.273438 194.640625 C 227.707031 211.582031 200.855469 242.113281 215.007812 253.550781 C 229.164062 264.988281 268.199219 236.351562 268.457031 236.179688 C 264.59375 242.371094 259.960938 248.21875 254.558594 253.636719 C 215.953125 292.332031 153.414062 292.332031 114.808594 253.636719 C 76.203125 214.9375 76.203125 152.246094 114.808594 113.546875 C 125.105469 103.226562 137.199219 95.574219 150.152344 90.757812 Z M 210.632812 173.402344 C 214.582031 180.710938 228.5625 171.9375 224.359375 167.207031 C 221.53125 164.113281 210.207031 163.253906 209.519531 169.015625 C 209.347656 170.132812 209.691406 171.59375 210.632812 173.402344 Z M 228.136719 188.707031 C 232.597656 191.546875 238.773438 187.503906 241.433594 184.234375 C 248.296875 175.894531 243.578125 171.507812 238.429688 171.507812 C 229.078125 171.507812 218.613281 182.6875 228.136719 188.707031 Z M 152.898438 168.757812 C 150.238281 175.292969 151.527344 183.375 157.101562 183.203125 C 163.449219 183.03125 168.082031 174.949219 168.769531 168.5 C 169.972656 155.683594 156.585938 159.554688 152.898438 168.757812 Z M 206.601562 139.949219 C 201.796875 147.945312 203.171875 152.589844 206.601562 154.824219 C 213.722656 159.46875 222.816406 153.792969 229.078125 146.226562 C 253.269531 117.160156 216.039062 124.46875 206.601562 139.949219 Z M 204.027344 86.457031 C 204.457031 86.714844 216.8125 94.714844 202.828125 115.78125 C 188.671875 137.28125 222.988281 121.027344 236.972656 121.542969 C 250.957031 122.0625 235.425781 141.753906 233.195312 150.269531 C 230.964844 158.78125 257.902344 160.242188 261.679688 169.703125 C 265.453125 179.164062 241.777344 211.410156 248.980469 220.613281 C 256.1875 229.8125 271.285156 217.429688 281.925781 201.691406 C 287.671875 170.734375 278.578125 137.539062 254.644531 113.546875 C 240.230469 99.1875 222.558594 90.15625 204.027344 86.457031 Z M 204.027344 86.457031 " fill-opacity="0.2" fill-rule="evenodd"/><path fill="#c521e0" d="M 242.289062 264.125 C 203.6875 291.988281 149.46875 288.550781 114.722656 253.722656 C 94.476562 233.425781 84.867188 206.507812 85.8125 179.9375 C 89.757812 188.964844 96.535156 198.597656 107.859375 198.167969 C 129.050781 197.394531 133.511719 199.199219 131.28125 218.375 C 129.050781 237.640625 176.832031 204.1875 191.589844 207.367188 C 206.257812 210.636719 190.300781 242.800781 193.5625 252.773438 C 196.824219 262.75 210.035156 266.535156 220.671875 264.46875 C 228.480469 263.179688 237.316406 262.578125 242.289062 264.125 Z M 116.523438 205.476562 C 114.808594 209.261719 118.667969 211.582031 121.414062 211.582031 C 126.648438 211.496094 127.847656 207.28125 125.789062 204.617188 C 123.816406 201.867188 118.667969 200.746094 116.523438 205.476562 Z M 116.523438 205.476562 " fill-opacity="0.2" fill-rule="evenodd"/><path fill="#47077f" d="M 274.632812 142.613281 C 290.074219 248.476562 169.800781 303.683594 102.96875 239.445312 C 106.402344 244.519531 110.347656 249.25 114.808594 253.722656 C 153.414062 292.417969 215.953125 292.417969 254.558594 253.722656 C 284.585938 223.621094 291.191406 179.078125 274.632812 142.613281 Z M 274.632812 142.613281 " fill-opacity="0.2" fill-rule="evenodd"/><path fill="#99ffff" d="M 230.367188 95.746094 C 231.738281 103.828125 230.195312 112.171875 221.101562 117.503906 C 198.195312 131.003906 176.664062 115.523438 169.285156 137.96875 C 161.90625 160.414062 156.84375 171.9375 138.402344 173.402344 C 119.957031 174.863281 113.007812 176.410156 108.03125 190.859375 C 103.054688 205.304688 98.421875 194.039062 88.730469 207.628906 C 80.578125 174.949219 89.242188 139.003906 114.722656 113.460938 C 146.035156 82.246094 193.132812 76.3125 230.367188 95.746094 Z M 230.367188 95.746094 " fill-opacity="0.251" fill-rule="evenodd"/><g clip-path="url(#id4)"><g clip-path="url(#id5)"><path fill="url(#id6)" d="M 19.5 243.402344 L 19.5 128.339844 L 364.453125 128.339844 L 364.453125 243.402344 Z M 19.5 243.402344 " fill-rule="nonzero"/></g></g><path fill="#ff99ff" d="M 45.0625 225.515625 C 55.613281 228.351562 58.015625 226.03125 69.941406 221.644531 C 81.867188 217.257812 88.300781 226.804688 96.449219 226.289062 C 104.6875 225.6875 107.171875 217.515625 128.964844 218.460938 C 150.753906 219.324219 155.472656 208.316406 164.566406 205.390625 C 173.660156 202.554688 187.902344 210.894531 193.820312 213.734375 C 199.738281 216.570312 202.484375 214.421875 210.292969 206.59375 C 218.097656 198.769531 231.566406 194.898438 247.4375 200.574219 C 263.222656 206.335938 275.578125 203.070312 278.921875 194.554688 C 282.269531 186.042969 283.554688 172.625 303.457031 174.089844 C 323.359375 175.550781 331.9375 181.054688 336.484375 171.851562 C 340.945312 162.652344 342.835938 156.460938 348.410156 153.621094 C 348.410156 153.621094 344.894531 157.578125 344.292969 162.996094 C 343.691406 168.328125 346.179688 188.621094 337.601562 192.0625 C 329.023438 195.585938 308.605469 180.453125 303.199219 183.460938 C 297.882812 186.472656 295.050781 213.128906 272.316406 213.5625 C 249.496094 213.992188 234.3125 199.972656 225.046875 209.691406 C 215.695312 219.410156 209.605469 235.402344 193.820312 226.804688 C 178.035156 218.203125 172.714844 209.433594 165.851562 214.421875 C 159.074219 219.410156 141.230469 238.84375 123.300781 232.738281 C 105.371094 226.632812 101.511719 239.445312 92.074219 234.457031 C 82.636719 229.46875 81.953125 224.480469 73.800781 229.210938 C 65.566406 234.027344 52.269531 232.050781 45.0625 225.515625 Z M 45.0625 225.515625 " fill-opacity="0.2" fill-rule="evenodd"/><path fill="#99ffff" d="M 223.417969 92.476562 C 221.785156 98.929688 217.839844 104.429688 209.519531 106.753906 C 183.867188 113.71875 167.140625 92.992188 154.1875 112.773438 C 141.144531 132.464844 133.167969 142.183594 114.980469 138.742188 C 107.6875 137.367188 102.113281 136.421875 97.566406 136.679688 C 102.027344 128.339844 107.773438 120.597656 114.722656 113.546875 C 144.148438 84.136719 187.386719 77.085938 223.417969 92.476562 Z M 223.417969 92.476562 " fill-opacity="0.251" fill-rule="evenodd"/><g clip-path="url(#id7)"><path fill="#333f79" d="M 193.980469 229.628906 L 164.976562 200.621094 C 162.21875 197.867188 162.21875 193.402344 164.976562 190.648438 L 193.980469 161.640625 C 196.738281 158.886719 201.203125 158.886719 203.957031 161.640625 L 232.964844 190.648438 C 235.71875 193.402344 235.71875 197.867188 232.964844 200.621094 L 203.957031 229.628906 C 201.203125 232.382812 196.738281 232.382812 193.980469 229.628906 " fill-opacity="1" fill-rule="nonzero"/></g><path fill="#ffffff" d="M 191.0625 198.792969 L 191.0625 198.835938 L 185.710938 198.820312 C 183.617188 198.800781 181.835938 197.300781 181.371094 195.328125 C 181.242188 194.78125 180.738281 194.394531 180.179688 194.390625 C 179.417969 194.382812 178.847656 195.078125 179.023438 195.828125 C 179.75 198.882812 182.515625 201.199219 185.769531 201.234375 L 209.496094 201.226562 C 211.023438 201.242188 212.449219 202.039062 213.308594 203.417969 C 213.523438 203.757812 213.683594 204.125 213.789062 204.511719 C 214.269531 206.292969 213.679688 208.050781 212.28125 209.121094 C 211.515625 209.707031 210.550781 209.980469 209.570312 209.972656 L 199.710938 209.867188 C 199.046875 209.859375 198.511719 210.394531 198.527344 211.058594 C 198.539062 211.722656 199.09375 212.269531 199.753906 212.277344 L 209.710938 212.386719 C 211.933594 212.410156 213.976562 211.367188 215.257812 209.496094 C 215.78125 208.726562 216.132812 207.84375 216.277344 206.917969 C 216.636719 204.65625 215.886719 202.441406 214.285156 200.851562 C 212.976562 199.558594 211.261719 198.832031 209.433594 198.8125 L 191.0625 198.792969 " fill-opacity="1" fill-rule="nonzero"/><path fill="#ffffff" d="M 212.171875 190.035156 L 191.226562 190.046875 L 188.445312 190.042969 C 186.824219 190.027344 185.320312 189.132812 184.480469 187.597656 C 184.382812 187.417969 184.300781 187.226562 184.234375 187.027344 C 183.679688 185.363281 184.078125 183.683594 185.210938 182.542969 C 186.019531 181.726562 187.109375 181.285156 188.277344 181.296875 L 198.230469 181.402344 C 198.894531 181.410156 199.425781 180.875 199.414062 180.210938 C 199.402344 179.546875 198.847656 179 198.183594 178.992188 L 188.230469 178.882812 C 186.007812 178.859375 183.964844 179.898438 182.683594 181.769531 C 182.160156 182.539062 181.808594 183.421875 181.660156 184.347656 C 181.304688 186.609375 182.050781 188.828125 183.65625 190.417969 C 184.960938 191.710938 186.679688 192.4375 188.503906 192.457031 L 206.878906 192.476562 L 206.875 192.433594 L 212.226562 192.449219 C 214.324219 192.46875 216.105469 193.96875 216.570312 195.941406 C 216.699219 196.488281 217.203125 196.875 217.757812 196.878906 C 218.523438 196.886719 219.09375 196.191406 218.914062 195.441406 C 218.191406 192.386719 215.425781 190.070312 212.171875 190.035156 " fill-opacity="1" fill-rule="nonzero"/><g clip-path="url(#id8)"><path fill="#333f79" d="M 199.066406 158.886719 C 200.398438 158.886719 201.726562 158.953125 203.050781 159.082031 C 204.375 159.214844 205.6875 159.410156 206.992188 159.667969 C 208.296875 159.929688 209.585938 160.25 210.859375 160.636719 C 212.132812 161.023438 213.382812 161.472656 214.613281 161.980469 C 215.84375 162.488281 217.042969 163.058594 218.21875 163.683594 C 219.390625 164.3125 220.53125 164.996094 221.636719 165.734375 C 222.742188 166.472656 223.808594 167.265625 224.839844 168.109375 C 225.867188 168.953125 226.851562 169.84375 227.792969 170.785156 C 228.734375 171.726562 229.625 172.710938 230.46875 173.738281 C 231.3125 174.769531 232.105469 175.835938 232.84375 176.941406 C 233.582031 178.046875 234.265625 179.1875 234.894531 180.359375 C 235.519531 181.535156 236.089844 182.734375 236.597656 183.964844 C 237.105469 185.195312 237.554688 186.445312 237.941406 187.71875 C 238.328125 188.992188 238.648438 190.28125 238.910156 191.585938 C 239.167969 192.890625 239.363281 194.203125 239.492188 195.527344 C 239.625 196.851562 239.691406 198.179688 239.691406 199.507812 C 239.691406 200.839844 239.625 202.167969 239.492188 203.492188 C 239.363281 204.816406 239.167969 206.128906 238.910156 207.433594 C 238.648438 208.738281 238.328125 210.027344 237.941406 211.300781 C 237.554688 212.574219 237.105469 213.824219 236.597656 215.054688 C 236.089844 216.285156 235.519531 217.484375 234.894531 218.660156 C 234.265625 219.832031 233.582031 220.972656 232.84375 222.078125 C 232.105469 223.183594 231.3125 224.25 230.46875 225.28125 C 229.625 226.308594 228.734375 227.292969 227.792969 228.234375 C 226.851562 229.175781 225.867188 230.066406 224.839844 230.910156 C 223.808594 231.753906 222.742188 232.546875 221.636719 233.285156 C 220.53125 234.023438 219.390625 234.707031 218.21875 235.335938 C 217.042969 235.960938 215.84375 236.53125 214.613281 237.039062 C 213.382812 237.546875 212.132812 237.996094 210.859375 238.382812 C 209.585938 238.769531 208.296875 239.089844 206.992188 239.351562 C 205.6875 239.609375 204.375 239.804688 203.050781 239.933594 C 201.726562 240.066406 200.398438 240.132812 199.066406 240.132812 C 197.738281 240.132812 196.410156 240.066406 195.085938 239.933594 C 193.761719 239.804688 192.449219 239.609375 191.144531 239.351562 C 189.839844 239.089844 188.550781 238.769531 187.277344 238.382812 C 186.003906 237.996094 184.753906 237.546875 183.523438 237.039062 C 182.292969 236.53125 181.09375 235.960938 179.917969 235.335938 C 178.746094 234.707031 177.605469 234.023438 176.5 233.285156 C 175.394531 232.546875 174.328125 231.753906 173.296875 230.910156 C 172.269531 230.066406 171.285156 229.175781 170.34375 228.234375 C 169.402344 227.292969 168.511719 226.308594 167.667969 225.28125 C 166.824219 224.25 166.03125 223.183594 165.292969 222.078125 C 164.554688 220.972656 163.871094 219.832031 163.242188 218.660156 C 162.617188 217.484375 162.046875 216.285156 161.539062 215.054688 C 161.03125 213.824219 160.582031 212.574219 160.195312 211.300781 C 159.808594 210.027344 159.488281 208.738281 159.226562 207.433594 C 158.96875 206.128906 158.773438 204.816406 158.640625 203.492188 C 158.511719 202.167969 158.445312 200.839844 158.445312 199.507812 C 158.445312 198.179688 158.511719 196.851562 158.640625 195.527344 C 158.773438 194.203125 158.96875 192.890625 159.226562 191.585938 C 159.488281 190.28125 159.808594 188.992188 160.195312 187.71875 C 160.582031 186.445312 161.03125 185.195312 161.539062 183.964844 C 162.046875 182.734375 162.617188 181.535156 163.242188 180.359375 C 163.871094 179.1875 164.554688 178.046875 165.292969 176.941406 C 166.03125 175.835938 166.824219 174.769531 167.667969 173.738281 C 168.511719 172.710938 169.402344 171.726562 170.34375 170.785156 C 171.285156 169.84375 172.269531 168.953125 173.296875 168.109375 C 174.328125 167.265625 175.394531 166.472656 176.5 165.734375 C 177.605469 164.996094 178.746094 164.3125 179.917969 163.683594 C 181.09375 163.058594 182.292969 162.488281 183.523438 161.980469 C 184.753906 161.472656 186.003906 161.023438 187.277344 160.636719 C 188.550781 160.25 189.839844 159.929688 191.144531 159.667969 C 192.449219 159.410156 193.761719 159.214844 195.085938 159.082031 C 196.410156 158.953125 197.738281 158.886719 199.066406 158.886719 L 199.066406 175.136719 C 198.269531 175.136719 197.472656 175.175781 196.679688 175.253906 C 195.886719 175.332031 195.097656 175.449219 194.3125 175.605469 C 193.53125 175.761719 192.757812 175.953125 191.992188 176.1875 C 191.230469 176.417969 190.480469 176.6875 189.742188 176.992188 C 189.003906 177.296875 188.28125 177.636719 187.578125 178.015625 C 186.875 178.390625 186.191406 178.800781 185.527344 179.246094 C 184.863281 179.6875 184.222656 180.164062 183.605469 180.667969 C 182.988281 181.175781 182.398438 181.710938 181.835938 182.277344 C 181.269531 182.839844 180.734375 183.429688 180.226562 184.046875 C 179.722656 184.664062 179.246094 185.304688 178.804688 185.96875 C 178.359375 186.632812 177.949219 187.316406 177.574219 188.019531 C 177.195312 188.722656 176.855469 189.445312 176.550781 190.183594 C 176.246094 190.921875 175.976562 191.671875 175.746094 192.433594 C 175.511719 193.199219 175.320312 193.972656 175.164062 194.753906 C 175.007812 195.539062 174.890625 196.328125 174.8125 197.121094 C 174.734375 197.914062 174.695312 198.710938 174.695312 199.507812 C 174.695312 200.308594 174.734375 201.105469 174.8125 201.898438 C 174.890625 202.691406 175.007812 203.480469 175.164062 204.265625 C 175.320312 205.046875 175.511719 205.820312 175.746094 206.585938 C 175.976562 207.347656 176.246094 208.097656 176.550781 208.835938 C 176.855469 209.574219 177.195312 210.296875 177.574219 211 C 177.949219 211.703125 178.359375 212.386719 178.804688 213.050781 C 179.246094 213.714844 179.722656 214.355469 180.226562 214.972656 C 180.734375 215.589844 181.269531 216.179688 181.835938 216.742188 C 182.398438 217.308594 182.988281 217.84375 183.605469 218.351562 C 184.222656 218.855469 184.863281 219.332031 185.527344 219.773438 C 186.191406 220.21875 186.875 220.628906 187.578125 221.003906 C 188.28125 221.382812 189.003906 221.722656 189.742188 222.027344 C 190.480469 222.332031 191.230469 222.601562 191.992188 222.832031 C 192.757812 223.066406 193.53125 223.257812 194.3125 223.414062 C 195.097656 223.570312 195.886719 223.6875 196.679688 223.765625 C 197.472656 223.84375 198.269531 223.882812 199.066406 223.882812 C 199.867188 223.882812 200.664062 223.84375 201.457031 223.765625 C 202.25 223.6875 203.039062 223.570312 203.824219 223.414062 C 204.605469 223.257812 205.378906 223.066406 206.144531 222.832031 C 206.90625 222.601562 207.65625 222.332031 208.394531 222.027344 C 209.132812 221.722656 209.851562 221.382812 210.558594 221.003906 C 211.261719 220.628906 211.945312 220.21875 212.609375 219.773438 C 213.273438 219.332031 213.914062 218.855469 214.53125 218.351562 C 215.148438 217.84375 215.738281 217.308594 216.300781 216.742188 C 216.867188 216.179688 217.402344 215.589844 217.910156 214.972656 C 218.414062 214.355469 218.890625 213.714844 219.332031 213.050781 C 219.777344 212.386719 220.1875 211.703125 220.5625 211 C 220.9375 210.296875 221.28125 209.574219 221.585938 208.835938 C 221.890625 208.097656 222.160156 207.347656 222.390625 206.585938 C 222.625 205.820312 222.816406 205.046875 222.972656 204.265625 C 223.128906 203.480469 223.246094 202.691406 223.324219 201.898438 C 223.402344 201.105469 223.441406 200.308594 223.441406 199.507812 C 223.441406 198.710938 223.402344 197.914062 223.324219 197.121094 C 223.246094 196.328125 223.128906 195.539062 222.972656 194.753906 C 222.816406 193.972656 222.625 193.199219 222.390625 192.433594 C 222.160156 191.671875 221.890625 190.921875 221.585938 190.183594 C 221.28125 189.445312 220.9375 188.722656 220.5625 188.019531 C 220.1875 187.316406 219.777344 186.632812 219.332031 185.96875 C 218.890625 185.304688 218.414062 184.664062 217.910156 184.046875 C 217.402344 183.429688 216.867188 182.839844 216.300781 182.277344 C 215.738281 181.710938 215.148438 181.175781 214.53125 180.667969 C 213.914062 180.164062 213.273438 179.6875 212.609375 179.246094 C 211.945312 178.800781 211.261719 178.390625 210.558594 178.015625 C 209.851562 177.636719 209.132812 177.296875 208.394531 176.992188 C 207.65625 176.6875 206.90625 176.417969 206.144531 176.1875 C 205.378906 175.953125 204.605469 175.761719 203.824219 175.605469 C 203.039062 175.449219 202.25 175.332031 201.457031 175.253906 C 200.664062 175.175781 199.867188 175.136719 199.066406 175.136719 Z M 199.066406 158.886719 " fill-opacity="1" fill-rule="nonzero"/></g><g clip-path="url(#id9)"><path fill="#ffffff" d="M 209.222656 160.179688 C 209.984375 160.375 210.734375 160.59375 211.480469 160.832031 C 212.226562 161.070312 212.96875 161.332031 213.699219 161.613281 C 214.429688 161.898438 215.152344 162.199219 215.867188 162.523438 C 216.578125 162.847656 217.285156 163.191406 217.976562 163.558594 C 218.671875 163.921875 219.355469 164.308594 220.027344 164.710938 C 220.695312 165.117188 221.355469 165.539062 222.003906 165.984375 C 222.652344 166.425781 223.285156 166.886719 223.90625 167.367188 C 224.523438 167.84375 225.132812 168.339844 225.722656 168.855469 C 226.3125 169.371094 226.890625 169.902344 227.453125 170.449219 C 228.011719 170.996094 228.554688 171.5625 229.085938 172.140625 C 229.613281 172.71875 230.125 173.3125 230.617188 173.921875 C 231.113281 174.53125 231.585938 175.152344 232.046875 175.789062 C 232.503906 176.425781 232.941406 177.074219 233.363281 177.738281 C 233.78125 178.398438 234.183594 179.074219 234.5625 179.757812 C 234.945312 180.441406 235.304688 181.136719 235.648438 181.84375 C 235.988281 182.550781 236.308594 183.265625 236.609375 183.988281 C 236.90625 184.714844 237.1875 185.445312 237.441406 186.1875 C 237.699219 186.929688 237.933594 187.675781 238.148438 188.429688 C 238.363281 189.183594 238.554688 189.945312 238.726562 190.710938 C 238.894531 191.472656 239.042969 192.242188 239.167969 193.019531 C 239.292969 193.792969 239.394531 194.570312 239.476562 195.347656 C 239.554688 196.128906 239.613281 196.910156 239.648438 197.691406 C 239.683594 198.476562 239.695312 199.257812 239.6875 200.042969 C 239.675781 200.828125 239.644531 201.609375 239.585938 202.390625 C 239.53125 203.175781 239.453125 203.953125 239.351562 204.730469 C 239.25 205.507812 239.128906 206.28125 238.984375 207.054688 C 238.835938 207.824219 238.667969 208.589844 238.480469 209.347656 C 238.289062 210.109375 238.078125 210.863281 237.84375 211.613281 C 237.609375 212.359375 237.355469 213.101562 237.078125 213.835938 C 236.804688 214.570312 236.503906 215.292969 236.1875 216.011719 C 235.867188 216.726562 235.53125 217.433594 235.171875 218.128906 C 234.8125 218.828125 234.433594 219.511719 234.03125 220.1875 C 233.632812 220.863281 233.214844 221.523438 232.777344 222.175781 C 232.339844 222.828125 231.882812 223.464844 231.410156 224.085938 C 230.9375 224.710938 230.445312 225.320312 229.933594 225.917969 C 229.425781 226.511719 228.898438 227.09375 228.355469 227.660156 C 227.8125 228.222656 227.253906 228.773438 226.675781 229.304688 C 226.101562 229.839844 225.511719 230.355469 224.90625 230.851562 C 224.304688 231.351562 223.683594 231.832031 223.050781 232.296875 C 222.417969 232.757812 221.773438 233.203125 221.113281 233.628906 C 220.457031 234.054688 219.785156 234.460938 219.105469 234.847656 C 218.421875 235.234375 217.730469 235.597656 217.027344 235.945312 C 216.324219 236.292969 215.609375 236.617188 214.886719 236.925781 C 214.167969 237.230469 213.4375 237.511719 212.699219 237.777344 C 211.957031 238.039062 211.214844 238.28125 210.460938 238.5 C 209.707031 238.71875 208.949219 238.917969 208.1875 239.09375 C 207.421875 239.269531 206.652344 239.425781 205.882812 239.554688 C 205.109375 239.6875 204.332031 239.796875 203.554688 239.882812 C 202.773438 239.96875 201.992188 240.035156 201.210938 240.074219 C 200.425781 240.117188 199.644531 240.132812 198.859375 240.128906 C 198.074219 240.125 197.292969 240.101562 196.511719 240.050781 C 195.726562 240 194.949219 239.929688 194.167969 239.835938 C 193.390625 239.738281 192.617188 239.625 191.84375 239.484375 C 191.074219 239.34375 190.304688 239.183594 189.542969 239 C 188.78125 238.816406 188.027344 238.609375 187.277344 238.382812 C 186.527344 238.152344 185.78125 237.90625 185.046875 237.632812 C 184.3125 237.363281 183.585938 237.074219 182.863281 236.757812 C 182.144531 236.445312 181.4375 236.113281 180.738281 235.761719 C 180.039062 235.40625 179.347656 235.03125 178.671875 234.640625 C 177.992188 234.246094 177.328125 233.832031 176.671875 233.398438 C 176.019531 232.96875 175.378906 232.515625 174.75 232.046875 C 174.121094 231.578125 173.507812 231.089844 172.910156 230.585938 C 172.308594 230.082031 171.722656 229.558594 171.15625 229.019531 C 170.585938 228.484375 170.03125 227.929688 169.496094 227.355469 C 169.128906 226.96875 168.804688 226.546875 168.519531 226.097656 C 168.238281 225.644531 168.003906 225.167969 167.8125 224.667969 C 167.625 224.171875 167.484375 223.660156 167.398438 223.132812 C 167.308594 222.605469 167.273438 222.078125 167.289062 221.542969 C 167.304688 221.011719 167.371094 220.484375 167.492188 219.964844 C 167.613281 219.445312 167.78125 218.941406 168 218.453125 C 168.21875 217.96875 168.484375 217.507812 168.792969 217.074219 C 169.101562 216.636719 169.449219 216.238281 169.839844 215.871094 C 170.226562 215.507812 170.648438 215.183594 171.101562 214.898438 C 171.550781 214.617188 172.027344 214.382812 172.527344 214.191406 C 173.027344 214.003906 173.539062 213.863281 174.0625 213.773438 C 174.589844 213.6875 175.121094 213.652344 175.652344 213.667969 C 176.1875 213.683594 176.714844 213.75 177.234375 213.871094 C 177.753906 213.992188 178.253906 214.160156 178.742188 214.378906 C 179.230469 214.597656 179.6875 214.863281 180.125 215.171875 C 180.558594 215.480469 180.957031 215.828125 181.324219 216.21875 C 181.96875 216.902344 182.652344 217.550781 183.371094 218.15625 C 184.09375 218.761719 184.84375 219.324219 185.632812 219.84375 C 186.417969 220.363281 187.230469 220.835938 188.070312 221.261719 C 188.910156 221.683594 189.773438 222.058594 190.65625 222.382812 C 191.539062 222.710938 192.4375 222.984375 193.355469 223.203125 C 194.269531 223.425781 195.195312 223.589844 196.128906 223.703125 C 197.0625 223.816406 198 223.878906 198.941406 223.882812 C 199.882812 223.886719 200.824219 223.835938 201.757812 223.734375 C 202.695312 223.628906 203.621094 223.472656 204.539062 223.261719 C 205.457031 223.050781 206.359375 222.785156 207.246094 222.46875 C 208.132812 222.152344 209 221.789062 209.84375 221.371094 C 210.6875 220.957031 211.503906 220.492188 212.296875 219.980469 C 213.085938 219.46875 213.84375 218.914062 214.570312 218.316406 C 215.296875 217.71875 215.988281 217.078125 216.640625 216.398438 C 217.292969 215.71875 217.902344 215.007812 218.472656 214.257812 C 219.042969 213.507812 219.566406 212.726562 220.046875 211.917969 C 220.527344 211.105469 220.957031 210.269531 221.339844 209.410156 C 221.722656 208.550781 222.054688 207.671875 222.335938 206.773438 C 222.613281 205.871094 222.84375 204.960938 223.015625 204.035156 C 223.191406 203.109375 223.3125 202.179688 223.378906 201.238281 C 223.445312 200.300781 223.457031 199.359375 223.417969 198.417969 C 223.375 197.480469 223.277344 196.542969 223.128906 195.613281 C 222.976562 194.683594 222.773438 193.769531 222.515625 192.863281 C 222.261719 191.957031 221.953125 191.066406 221.59375 190.199219 C 221.230469 189.328125 220.824219 188.480469 220.367188 187.660156 C 219.90625 186.835938 219.402344 186.042969 218.855469 185.277344 C 218.304688 184.511719 217.710938 183.785156 217.078125 183.089844 C 216.445312 182.390625 215.769531 181.734375 215.0625 181.117188 C 214.351562 180.5 213.605469 179.925781 212.828125 179.394531 C 212.050781 178.863281 211.246094 178.375 210.414062 177.9375 C 209.582031 177.5 208.726562 177.113281 207.847656 176.773438 C 206.96875 176.433594 206.074219 176.144531 205.160156 175.910156 C 204.644531 175.777344 204.144531 175.59375 203.664062 175.363281 C 203.183594 175.132812 202.730469 174.855469 202.304688 174.535156 C 201.878906 174.214844 201.488281 173.855469 201.132812 173.457031 C 200.777344 173.058594 200.464844 172.628906 200.195312 172.171875 C 199.921875 171.710938 199.699219 171.230469 199.523438 170.726562 C 199.347656 170.222656 199.222656 169.707031 199.148438 169.179688 C 199.074219 168.648438 199.050781 168.121094 199.082031 167.585938 C 199.109375 167.054688 199.191406 166.53125 199.328125 166.011719 C 199.460938 165.496094 199.640625 165 199.875 164.519531 C 200.105469 164.039062 200.382812 163.582031 200.703125 163.15625 C 201.023438 162.730469 201.382812 162.339844 201.78125 161.984375 C 202.179688 161.628906 202.605469 161.316406 203.066406 161.046875 C 203.527344 160.773438 204.007812 160.550781 204.511719 160.375 C 205.015625 160.199219 205.53125 160.074219 206.058594 160 C 206.585938 159.925781 207.117188 159.902344 207.648438 159.933594 C 208.183594 159.964844 208.707031 160.042969 209.222656 160.179688 Z M 209.222656 160.179688 " fill-opacity="1" fill-rule="nonzero"/></g><g clip-path="url(#id10)"><path fill="#333f79" d="M 158.445312 114.863281 L 174.195312 114.863281 L 174.195312 202.574219 L 158.445312 202.574219 L 158.445312 114.863281 " fill-opacity="1" fill-rule="nonzero"/></g></svg>